<?xml version="1.0" encoding="UTF-8" standalone="no"?>
<!-- Created with Inkscape (http://www.inkscape.org/) -->

<svg
   width="128"
   height="128"
   viewBox="0 0 33.866666 33.866666"
   version="1.1"
   id="svg1"
   inkscape:version="1.4.2 (ebf0e940d0, 2025-05-08)"
   sodipodi:docname="logo.svg"
   xml:space="preserve"
   inkscape:export-filename="logo_export.svg"
   inkscape:export-xdpi="96"
   inkscape:export-ydpi="96"
   xmlns:inkscape="http://www.inkscape.org/namespaces/inkscape"
   xmlns:sodipodi="http://sodipodi.sourceforge.net/DTD/sodipodi-0.dtd"
   xmlns="http://www.w3.org/2000/svg"
   xmlns:svg="http://www.w3.org/2000/svg"><sodipodi:namedview
     id="namedview1"
     pagecolor="#ffffff"
     bordercolor="#000000"
     borderopacity="0.25"
     inkscape:showpageshadow="2"
     inkscape:pageopacity="0.0"
     inkscape:pagecheckerboard="0"
     inkscape:deskcolor="#d1d1d1"
     inkscape:document-units="mm"
     inkscape:zoom="2.9582143"
     inkscape:cx="32.959073"
     inkscape:cy="53.241579"
     inkscape:window-width="1424"
     inkscape:window-height="815"
     inkscape:window-x="20"
     inkscape:window-y="20"
     inkscape:window-maximized="0"
     inkscape:current-layer="layer2" /><defs
     id="defs1"><inkscape:path-effect
       effect="offset"
       id="path-effect2"
       is_visible="true"
       lpeversion="1.3"
       linejoin_type="miter"
       unit="mm"
       offset="0"
       miter_limit="8"
       attempt_force_join="false"
       update_on_knot_move="true" /></defs><g
     inkscape:groupmode="layer"
     id="layer2"
     inkscape:label="Logo"
     style="display:inline;opacity:1"><g
       id="g1"
       transform="matrix(1.1074646,0,0,1.1074646,-2.2175374,-2.1252027)"><ellipse
         style="display:inline;opacity:1;fill:#ffe19a;fill-opacity:1;stroke-width:0.262682"
         id="circle2"
         cx="23.519567"
         cy="14.6027"
         inkscape:label="visor_large"
         rx="6.4005628"
         ry="9.3878269" /><ellipse
         style="display:inline;opacity:1;fill:#ffa620;fill-opacity:1;stroke-width:0.274349"
         id="circle1"
         cx="20.130873"
         cy="15.172442"
         inkscape:label="visor_medium"
         rx="7.3200073"
         ry="8.9540663" /><circle
         style="fill:#ed8617;fill-opacity:1;stroke-width:0.264583"
         id="path1"
         cx="17.590975"
         cy="15.017221"
         r="7.8076978"
         inkscape:label="visor_small" /><path
         style="display:inline;opacity:1;fill:#205173;fill-opacity:1;stroke:none;stroke-width:1.00012;stroke-dasharray:none;stroke-opacity:1"
         d="m 5.956768,24.704425 16.392656,3.140002 3.140002,1.800884 1.43147,2.077942 -6.926473,0.184705 L 9.2814755,28.260016 4.9408849,27.982957 Z"
         id="path17"
         inkscape:label="body_fill" /><path
         style="display:inline;opacity:1;fill:#e0e0d7;fill-opacity:1;stroke:none;stroke-width:4.12291;stroke-dasharray:none;stroke-opacity:1"
         id="path3"
         sodipodi:type="arc"
         sodipodi:cx="17.218512"
         sodipodi:cy="14.346334"
         sodipodi:rx="12.103403"
         sodipodi:ry="11.151052"
         sodipodi:start="3.5487968"
         sodipodi:end="5.3492184"
         sodipodi:arc-type="slice"
         d="M 6.1047833,9.9300311 A 12.103403,11.151052 0 0 1 14.067429,3.5798242 12.103403,11.151052 0 0 1 24.415792,5.3810535 l -7.19728,8.9652805 z"
         inkscape:label="panel_top" /><path
         style="display:inline;opacity:1;fill:#205173;fill-opacity:1;stroke:none;stroke-width:2.54213;stroke-dasharray:none;stroke-opacity:1"
         id="path4"
         sodipodi:type="arc"
         sodipodi:cx="17.83449"
         sodipodi:cy="14.902418"
         sodipodi:rx="13.136739"
         sodipodi:ry="11.541468"
         sodipodi:start="1.3866822"
         sodipodi:end="3.6089685"
         sodipodi:arc-type="slice"
         d="M 20.239508,26.248821 A 13.136739,11.541468 0 0 1 7.3271973,21.829756 13.136739,11.541468 0 0 1 6.1066182,9.7024662 L 17.83449,14.902418 Z" /><path
         style="display:inline;opacity:1;fill:#4393cb;fill-opacity:1;stroke:none;stroke-width:1.32292;stroke-dasharray:none;stroke-opacity:1"
         d="m 17.476331,16.030014 9.280534,8.557376 -1.365965,2.450703 h -4.580004 l -4.338951,-9.03948 z"
         id="path14" /><path
         style="display:inline;opacity:1;fill:none;fill-opacity:1;stroke:#002a47;stroke-width:1.32292;stroke-dasharray:none;stroke-opacity:1"
         d="m 26.859846,23.234277 c 0,0 5.463884,-5.770271 1.889379,-13.3788586 C 25.174722,2.2468312 18.334515,2.7877864 16.34059,2.7574745 14.064884,3.1531794 11.703525,2.9904126 7.1077342,7.5862036 2.5119431,12.181994 5.7289968,20.403354 5.7289968,20.403354 l 2.1349122,3.443695 -0.5106435,1.021287 -1.0723512,-0.05106 -1.3787371,2.757473 0.3574502,0.561708 c 0,0 4.8790056,0.371815 8.8879246,1.606753 2.338865,0.720482 5.840208,1.886091 5.840208,1.886091 l 7.193603,0.02692 c 0,0 -1.454269,-1.654643 -2.316583,-2.305913 -0.862313,-0.65127 -2.804983,-1.5713 -2.804983,-1.5713 l 0.204257,-0.612772 3.676633,-0.102129 1.634058,-2.961731 z"
         id="path2"
         sodipodi:nodetypes="cscsccccccscczccccc"
         inkscape:label="outline" /><g
         id="g13"
         inkscape:label="panel_lines"><path
           style="fill:none;fill-opacity:1;stroke:#002a47;stroke-width:1.32292;stroke-dasharray:none;stroke-opacity:1"
           d="M 24.296253,4.6769297 18.826624,11.613054"
           id="path5"
           sodipodi:nodetypes="cc" /><path
           style="fill:none;fill-opacity:1;stroke:#002a47;stroke-width:1.32292;stroke-dasharray:none;stroke-opacity:1"
           d="M 17.003414,3.2500697 V 11.216704"
           id="path6" /><path
           style="fill:none;fill-opacity:1;stroke:#002a47;stroke-width:1.32292;stroke-dasharray:none;stroke-opacity:1"
           d="m 10.265464,5.5885347 4.28058,6.0641543"
           id="path7" /><path
           style="fill:none;fill-opacity:1;stroke:#002a47;stroke-width:1.32292;stroke-dasharray:none;stroke-opacity:1"
           d="M 5.4989954,9.9831547 13.198454,13.356994"
           id="path8"
           sodipodi:nodetypes="cc" /><path
           style="fill:none;fill-opacity:1;stroke:#002a47;stroke-width:1.32292;stroke-dasharray:none;stroke-opacity:1"
           d="m 5.0732795,15.655824 7.8477295,0.03963"
           id="path9" /><path
           style="fill:none;fill-opacity:1;stroke:#002a47;stroke-width:1.32292;stroke-dasharray:none;stroke-opacity:1"
           d="M 7.0550296,21.759614 13.396629,17.280859"
           id="path10" /><path
           style="fill:none;fill-opacity:1;stroke:#002a47;stroke-width:1.32292;stroke-dasharray:none;stroke-opacity:1"
           d="m 11.652689,25.604208 3.56715,-7.055029"
           id="path11" /><path
           style="fill:none;fill-opacity:1;stroke:#002a47;stroke-width:1.32292;stroke-dasharray:none;stroke-opacity:1"
           d="m 16.95405,18.842297 3.897021,8.195796"
           id="path12" /><path
           style="fill:none;fill-opacity:1;stroke:#002a47;stroke-width:1.32292;stroke-dasharray:none;stroke-opacity:1"
           d="m 18.882473,18.038788 8.340614,6.545798"
           id="path13"
           sodipodi:nodetypes="cc" /></g><ellipse
         style="fill:#4393cb;fill-opacity:1;stroke:#002a47;stroke-width:1.52493;stroke-dasharray:none;stroke-opacity:1"
         id="path15"
         cx="16.409285"
         cy="15.069166"
         rx="4.3767591"
         ry="4.3482461" /><path
         style="fill:#002a47;fill-opacity:1;stroke:none;stroke-width:1.32292;stroke-dasharray:none;stroke-opacity:1"
         d="m 7.2903981,21.711567 c 1.7077894,1.157825 3.3927959,3.796714 8.0218219,4.197974 4.663242,0.404226 8.249493,0.588534 8.249493,0.588534 0,0 -0.01221,0.332862 -1.731534,1.82611 C 19.026072,27.393612 15.115617,27.260733 7.4507664,25.519327 7.4797124,23.92732 7.290398,21.711567 7.2903981,21.711567 Z"
         id="path16"
         sodipodi:nodetypes="cscccc" /><ellipse
         style="fill:#002a47;fill-opacity:1;stroke:none;stroke-width:1.00012;stroke-dasharray:none;stroke-opacity:1"
         id="path18"
         cx="16.34049"
         cy="15.023023"
         rx="1.3391184"
         ry="1.2929419"
         inkscape:label="visor_joint" /></g></g></svg>
